<svg width="1240" height="900" viewBox="0 0 1240 900" xmlns="http://www.w3.org/2000/svg"><defs>
<linearGradient id="canvas" x1="0" y1="0" x2="0" y2="1"><stop stop-color="#FFFFFF"/><stop offset="1" stop-color="#F4F7FB"/></linearGradient>
<linearGradient id="card" x1="0" y1="0" x2="0" y2="1"><stop stop-color="#FFFFFF"/><stop offset="1" stop-color="#F7F9FD"/></linearGradient>
<filter id="sh" x="-20%" y="-20%" width="140%" height="140%"><feDropShadow dx="0" dy="10" stdDeviation="12" flood-color="#97A8C7" flood-opacity="0.16"/></filter>
<marker id="arw" markerWidth="10" markerHeight="10" refX="8" refY="5" orient="auto"><path d="M0 0L10 5L0 10V0Z" fill="#70829F"/></marker>
<symbol id="ic-person" viewBox="0 0 48 48"><circle cx="24" cy="18" r="7" class="ic"/><path d="M12 38C14 31 20 28 24 28C28 28 34 31 36 38" class="ic"/></symbol><symbol id="ic-db" viewBox="0 0 48 48"><ellipse cx="24" cy="15" rx="11" ry="5" class="ic"/><path d="M13 15V31C13 34 18 37 24 37C30 37 35 34 35 31V15" class="ic"/><path d="M13 23C13 26 18 29 24 29C30 29 35 26 35 23" class="ic"/></symbol><symbol id="ic-shield" viewBox="0 0 48 48"><path d="M24 11L35 16V24C35 31 30 36 24 39C18 36 13 31 13 24V16L24 11Z" class="ic"/><path d="M19 25L22.5 28.5L29.5 21.5" class="ic"/></symbol><symbol id="ic-monitor" viewBox="0 0 48 48"><rect x="11" y="14" width="26" height="17" rx="3" class="ic"/><path d="M18 36H30" class="ic"/><path d="M24 31V36" class="ic"/></symbol><symbol id="ic-cloud" viewBox="0 0 48 48"><path d="M15 32C11 32 8 29 8 25C8 21 11 18 15 18C16 13 21 10 26 11C31 12 34 16 34 21C38 21 41 24 41 28C41 32 38 34 34 34H16" class="ic"/></symbol><symbol id="ic-gear" viewBox="0 0 48 48"><circle cx="24" cy="24" r="7" class="ic"/><path d="M24 10V15M24 33V38M10 24H15M33 24H38M14 14L18 18M30 30L34 34M34 14L30 18M18 30L14 34" class="ic"/></symbol><symbol id="ic-chart" viewBox="0 0 48 48"><path d="M12 36V12" class="ic"/><path d="M12 36H38" class="ic"/><rect x="17" y="26" width="5" height="8" class="ic"/><rect x="26" y="20" width="5" height="14" class="ic"/><rect x="35" y="15" width="0.5" height="0.5" class="ic"/></symbol><symbol id="ic-warning" viewBox="0 0 48 48"><path d="M24 12L38 36H10L24 12Z" class="ic"/><path d="M24 22V29" class="ic"/><circle cx="24" cy="33" r="1.4" class="ic"/></symbol><symbol id="ic-lock" viewBox="0 0 48 48"><rect x="14" y="22" width="20" height="15" rx="3" class="ic"/><path d="M18 22V17C18 13 21 10 24 10C27 10 30 13 30 17V22" class="ic"/></symbol><symbol id="ic-link" viewBox="0 0 48 48"><path d="M20 28L28 20" class="ic"/><path d="M23 16L26 13C29 10 34 10 37 13C40 16 40 21 37 24L34 27" class="ic"/><path d="M25 32L22 35C19 38 14 38 11 35C8 32 8 27 11 24L14 21" class="ic"/></symbol>
<style>
.sec { font: 700 17px "Apple SD Gothic Neo","Noto Sans KR",sans-serif; fill:#5B6F92; letter-spacing:.02em; }
.ttl { font: 700 27px "Apple SD Gothic Neo","Noto Sans KR",sans-serif; fill:#16345F; }
.bt  { font: 700 19px "Apple SD Gothic Neo","Noto Sans KR",sans-serif; fill:#25364D; }
.bs  { font: 500 15px "Apple SD Gothic Neo","Noto Sans KR",sans-serif; fill:#4C5E79; }
.nt  { font: 600 15px "Apple SD Gothic Neo","Noto Sans KR",sans-serif; fill:#50627D; }
.ft  { font: 700 19px "Apple SD Gothic Neo","Noto Sans KR",sans-serif; }
.ic  { stroke:#5F7396; stroke-width:2.2; stroke-linecap:round; stroke-linejoin:round; fill:none; }
</style>
</defs><rect width="1240" height="900" rx="26" fill="url(#canvas)"/><rect x="14" y="14" width="1212" height="872" rx="22" fill="none" stroke="#DCE4F1" stroke-width="2"/><line x1="600" y1="40" x2="600" y2="860" stroke="#E1E8F3" stroke-width="2" stroke-dasharray="2 10"/><text x="56" y="70" class="sec">가장 편한 문</text><text x="56" y="108" class="ttl">노션 AI 내장 클로드 (첫 번째 문)</text><g filter="url(#sh)"><rect x="80" y="156" width="440" height="112" rx="16" fill="url(#card)" stroke="#D5DEEA"/></g><circle cx="132" cy="212" r="26" fill="#EAF1FF" stroke="#C9D8F1" stroke-width="1.4"/><use href="#ic-lock" x="108" y="188" width="48" height="48"/><text x="176" y="206" class="bt">노션이 큐레이션</text><text x="176" y="232" class="bs">모델·기능을 노션이 결정</text><path d="M300 268V306" stroke="#70829F" stroke-width="2.5" marker-end="url(#arw)"/><g filter="url(#sh)"><rect x="80" y="306" width="440" height="112" rx="16" fill="url(#card)" stroke="#D5DEEA"/></g><circle cx="132" cy="362" r="26" fill="#EAF1FF" stroke="#C9D8F1" stroke-width="1.4"/><use href="#ic-warning" x="108" y="338" width="48" height="48"/><text x="176" y="356" class="bt">드롭다운 의존</text><text x="176" y="382" class="bs">6/7 장애 때 업무 정지</text><path d="M300 418V456" stroke="#70829F" stroke-width="2.5" marker-end="url(#arw)"/><g filter="url(#sh)"><rect x="80" y="456" width="440" height="112" rx="16" fill="url(#card)" stroke="#D5DEEA"/></g><circle cx="132" cy="512" r="26" fill="#EAF1FF" stroke="#C9D8F1" stroke-width="1.4"/><use href="#ic-gear" x="108" y="488" width="48" height="48"/><text x="176" y="506" class="bt">확장이 막힌다</text><text x="176" y="532" class="bs">API·외부 자동화 연결 곤란</text><rect x="190" y="632" width="220" height="60" rx="15" fill="#FFECEE" stroke="#E6B7C2"/><text x="300" y="670" text-anchor="middle" class="ft" fill="#8B4B5B">편하지만 운전대는 노션이 쥔다</text><text x="300" y="724" text-anchor="middle" class="nt">가장 편한 통합일수록 사라진 날의 타격이 크다</text><text x="656" y="70" class="sec">가장 강한 문</text><text x="656" y="108" class="ttl">Notion MCP 직접 연결 (세 번째 문)</text><g filter="url(#sh)"><rect x="680" y="156" width="440" height="112" rx="16" fill="url(#card)" stroke="#D5DEEA"/></g><circle cx="732" cy="212" r="26" fill="#EAF1FF" stroke="#C9D8F1" stroke-width="1.4"/><use href="#ic-shield" x="708" y="188" width="48" height="48"/><text x="776" y="206" class="bt">권한 직접 지정</text><text x="776" y="232" class="bs">어떤 페이지·권한인지 내가 결정</text><path d="M900 268V306" stroke="#70829F" stroke-width="2.5" marker-end="url(#arw)"/><g filter="url(#sh)"><rect x="680" y="306" width="440" height="112" rx="16" fill="url(#card)" stroke="#D5DEEA"/></g><circle cx="732" cy="362" r="26" fill="#EAF1FF" stroke="#C9D8F1" stroke-width="1.4"/><use href="#ic-monitor" x="708" y="338" width="48" height="48"/><text x="776" y="356" class="bt">투명성</text><text x="776" y="382" class="bs">어떤 모델이 어디 접근하는지 확인</text><path d="M900 418V456" stroke="#70829F" stroke-width="2.5" marker-end="url(#arw)"/><g filter="url(#sh)"><rect x="680" y="456" width="440" height="112" rx="16" fill="url(#card)" stroke="#D5DEEA"/></g><circle cx="732" cy="512" r="26" fill="#EAF1FF" stroke="#C9D8F1" stroke-width="1.4"/><use href="#ic-link" x="708" y="488" width="48" height="48"/><text x="776" y="506" class="bt">대체 경로 확보</text><text x="776" y="532" class="bs">장애 때 갈아탈 통로를 스스로 쥔다</text><rect x="790" y="632" width="220" height="60" rx="15" fill="#EAF7E8" stroke="#BFDBBE"/><text x="900" y="670" text-anchor="middle" class="ft" fill="#3D6B4B">손이 더 가지만 운전대는 내 손 안에</text><text x="900" y="724" text-anchor="middle" class="nt">장애가 다시 와도 스스로 우회할 수 있다</text></svg>