<svg width="1280" height="720" viewBox="0 0 1280 720" xmlns="http://www.w3.org/2000/svg">
<defs>
<linearGradient id="bg" x1="0" y1="0" x2="1" y2="1">
  <stop stop-color="#0b1020"/><stop offset="0.55" stop-color="#0d1430"/><stop offset="1" stop-color="#141a46"/>
</linearGradient>
<radialGradient id="glowA" cx="18%" cy="16%" r="42%">
  <stop stop-color="#607cff" stop-opacity="0.40"/><stop offset="1" stop-color="#607cff" stop-opacity="0"/>
</radialGradient>
<radialGradient id="glowB" cx="86%" cy="78%" r="40%">
  <stop stop-color="#f490b8" stop-opacity="0.26"/><stop offset="1" stop-color="#f490b8" stop-opacity="0"/>
</radialGradient>
<linearGradient id="ring" x1="0" y1="0" x2="1" y2="1">
  <stop stop-color="#84a8ff"/><stop offset="1" stop-color="#f0accb"/>
</linearGradient>
<style>
.eb { font: 700 24px "Apple SD Gothic Neo","Noto Sans KR",sans-serif; fill:#9db4ff; letter-spacing:.16em; }
.br { font: 600 20px "Apple SD Gothic Neo","Noto Sans KR",sans-serif; fill:#7f8cb8; }
</style>
</defs>
<rect width="1280" height="720" fill="url(#bg)"/>
<circle cx="90" cy="120" r="2" fill="#5f78d8" fill-opacity="0.14"/><circle cx="150" cy="120" r="2" fill="#5f78d8" fill-opacity="0.14"/><circle cx="210" cy="120" r="2" fill="#5f78d8" fill-opacity="0.14"/><circle cx="270" cy="120" r="2" fill="#5f78d8" fill-opacity="0.14"/><circle cx="330" cy="120" r="2" fill="#5f78d8" fill-opacity="0.14"/><circle cx="390" cy="120" r="2" fill="#5f78d8" fill-opacity="0.14"/><circle cx="450" cy="120" r="2" fill="#5f78d8" fill-opacity="0.14"/><circle cx="510" cy="120" r="2" fill="#5f78d8" fill-opacity="0.14"/><circle cx="570" cy="120" r="2" fill="#5f78d8" fill-opacity="0.14"/><circle cx="630" cy="120" r="2" fill="#5f78d8" fill-opacity="0.14"/><circle cx="690" cy="120" r="2" fill="#5f78d8" fill-opacity="0.14"/><circle cx="750" cy="120" r="2" fill="#5f78d8" fill-opacity="0.14"/><circle cx="810" cy="120" r="2" fill="#5f78d8" fill-opacity="0.14"/><circle cx="870" cy="120" r="2" fill="#5f78d8" fill-opacity="0.14"/><circle cx="930" cy="120" r="2" fill="#5f78d8" fill-opacity="0.14"/><circle cx="990" cy="120" r="2" fill="#5f78d8" fill-opacity="0.14"/><circle cx="1050" cy="120" r="2" fill="#5f78d8" fill-opacity="0.14"/><circle cx="1110" cy="120" r="2" fill="#5f78d8" fill-opacity="0.14"/><circle cx="1170" cy="120" r="2" fill="#5f78d8" fill-opacity="0.14"/><circle cx="1230" cy="120" r="2" fill="#5f78d8" fill-opacity="0.14"/><circle cx="90" cy="180" r="2" fill="#5f78d8" fill-opacity="0.14"/><circle cx="150" cy="180" r="2" fill="#5f78d8" fill-opacity="0.14"/><circle cx="210" cy="180" r="2" fill="#5f78d8" fill-opacity="0.14"/><circle cx="270" cy="180" r="2" fill="#5f78d8" fill-opacity="0.14"/><circle cx="330" cy="180" r="2" fill="#5f78d8" fill-opacity="0.14"/><circle cx="390" cy="180" r="2" fill="#5f78d8" fill-opacity="0.14"/><circle cx="450" cy="180" r="2" fill="#5f78d8" fill-opacity="0.14"/><circle cx="510" cy="180" r="2" fill="#5f78d8" fill-opacity="0.14"/><circle cx="570" cy="180" r="2" fill="#5f78d8" fill-opacity="0.14"/><circle cx="630" cy="180" r="2" fill="#5f78d8" fill-opacity="0.14"/><circle cx="690" cy="180" r="2" fill="#5f78d8" fill-opacity="0.14"/><circle cx="750" cy="180" r="2" fill="#5f78d8" fill-opacity="0.14"/><circle cx="810" cy="180" r="2" fill="#5f78d8" fill-opacity="0.14"/><circle cx="870" cy="180" r="2" fill="#5f78d8" fill-opacity="0.14"/><circle cx="930" cy="180" r="2" fill="#5f78d8" fill-opacity="0.14"/><circle cx="990" cy="180" r="2" fill="#5f78d8" fill-opacity="0.14"/><circle cx="1050" cy="180" r="2" fill="#5f78d8" fill-opacity="0.14"/><circle cx="1110" cy="180" r="2" fill="#5f78d8" fill-opacity="0.14"/><circle cx="1170" cy="180" r="2" fill="#5f78d8" fill-opacity="0.14"/><circle cx="1230" cy="180" r="2" fill="#5f78d8" fill-opacity="0.14"/><circle cx="90" cy="240" r="2" fill="#5f78d8" fill-opacity="0.14"/><circle cx="150" cy="240" r="2" fill="#5f78d8" fill-opacity="0.14"/><circle cx="210" cy="240" r="2" fill="#5f78d8" fill-opacity="0.14"/><circle cx="270" cy="240" r="2" fill="#5f78d8" fill-opacity="0.14"/><circle cx="330" cy="240" r="2" fill="#5f78d8" fill-opacity="0.14"/><circle cx="390" cy="240" r="2" fill="#5f78d8" fill-opacity="0.14"/><circle cx="450" cy="240" r="2" fill="#5f78d8" fill-opacity="0.14"/><circle cx="510" cy="240" r="2" fill="#5f78d8" fill-opacity="0.14"/><circle cx="570" cy="240" r="2" fill="#5f78d8" fill-opacity="0.14"/><circle cx="630" cy="240" r="2" fill="#5f78d8" fill-opacity="0.14"/><circle cx="690" cy="240" r="2" fill="#5f78d8" fill-opacity="0.14"/><circle cx="750" cy="240" r="2" fill="#5f78d8" fill-opacity="0.14"/><circle cx="810" cy="240" r="2" fill="#5f78d8" fill-opacity="0.14"/><circle cx="870" cy="240" r="2" fill="#5f78d8" fill-opacity="0.14"/><circle cx="930" cy="240" r="2" fill="#5f78d8" fill-opacity="0.14"/><circle cx="990" cy="240" r="2" fill="#5f78d8" fill-opacity="0.14"/><circle cx="1050" cy="240" r="2" fill="#5f78d8" fill-opacity="0.14"/><circle cx="1110" cy="240" r="2" fill="#5f78d8" fill-opacity="0.14"/><circle cx="1170" cy="240" r="2" fill="#5f78d8" fill-opacity="0.14"/><circle cx="1230" cy="240" r="2" fill="#5f78d8" fill-opacity="0.14"/><circle cx="90" cy="300" r="2" fill="#5f78d8" fill-opacity="0.14"/><circle cx="150" cy="300" r="2" fill="#5f78d8" fill-opacity="0.14"/><circle cx="210" cy="300" r="2" fill="#5f78d8" fill-opacity="0.14"/><circle cx="270" cy="300" r="2" fill="#5f78d8" fill-opacity="0.14"/><circle cx="330" cy="300" r="2" fill="#5f78d8" fill-opacity="0.14"/><circle cx="390" cy="300" r="2" fill="#5f78d8" fill-opacity="0.14"/><circle cx="450" cy="300" r="2" fill="#5f78d8" fill-opacity="0.14"/><circle cx="510" cy="300" r="2" fill="#5f78d8" fill-opacity="0.14"/><circle cx="570" cy="300" r="2" fill="#5f78d8" fill-opacity="0.14"/><circle cx="630" cy="300" r="2" fill="#5f78d8" fill-opacity="0.14"/><circle cx="690" cy="300" r="2" fill="#5f78d8" fill-opacity="0.14"/><circle cx="750" cy="300" r="2" fill="#5f78d8" fill-opacity="0.14"/><circle cx="810" cy="300" r="2" fill="#5f78d8" fill-opacity="0.14"/><circle cx="870" cy="300" r="2" fill="#5f78d8" fill-opacity="0.14"/><circle cx="930" cy="300" r="2" fill="#5f78d8" fill-opacity="0.14"/><circle cx="990" cy="300" r="2" fill="#5f78d8" fill-opacity="0.14"/><circle cx="1050" cy="300" r="2" fill="#5f78d8" fill-opacity="0.14"/><circle cx="1110" cy="300" r="2" fill="#5f78d8" fill-opacity="0.14"/><circle cx="1170" cy="300" r="2" fill="#5f78d8" fill-opacity="0.14"/><circle cx="1230" cy="300" r="2" fill="#5f78d8" fill-opacity="0.14"/><circle cx="90" cy="360" r="2" fill="#5f78d8" fill-opacity="0.14"/><circle cx="150" cy="360" r="2" fill="#5f78d8" fill-opacity="0.14"/><circle cx="210" cy="360" r="2" fill="#5f78d8" fill-opacity="0.14"/><circle cx="270" cy="360" r="2" fill="#5f78d8" fill-opacity="0.14"/><circle cx="330" cy="360" r="2" fill="#5f78d8" fill-opacity="0.14"/><circle cx="390" cy="360" r="2" fill="#5f78d8" fill-opacity="0.14"/><circle cx="450" cy="360" r="2" fill="#5f78d8" fill-opacity="0.14"/><circle cx="510" cy="360" r="2" fill="#5f78d8" fill-opacity="0.14"/><circle cx="570" cy="360" r="2" fill="#5f78d8" fill-opacity="0.14"/><circle cx="630" cy="360" r="2" fill="#5f78d8" fill-opacity="0.14"/><circle cx="690" cy="360" r="2" fill="#5f78d8" fill-opacity="0.14"/><circle cx="750" cy="360" r="2" fill="#5f78d8" fill-opacity="0.14"/><circle cx="810" cy="360" r="2" fill="#5f78d8" fill-opacity="0.14"/><circle cx="870" cy="360" r="2" fill="#5f78d8" fill-opacity="0.14"/><circle cx="930" cy="360" r="2" fill="#5f78d8" fill-opacity="0.14"/><circle cx="990" cy="360" r="2" fill="#5f78d8" fill-opacity="0.14"/><circle cx="1050" cy="360" r="2" fill="#5f78d8" fill-opacity="0.14"/><circle cx="1110" cy="360" r="2" fill="#5f78d8" fill-opacity="0.14"/><circle cx="1170" cy="360" r="2" fill="#5f78d8" fill-opacity="0.14"/><circle cx="1230" cy="360" r="2" fill="#5f78d8" fill-opacity="0.14"/><circle cx="90" cy="420" r="2" fill="#5f78d8" fill-opacity="0.14"/><circle cx="150" cy="420" r="2" fill="#5f78d8" fill-opacity="0.14"/><circle cx="210" cy="420" r="2" fill="#5f78d8" fill-opacity="0.14"/><circle cx="270" cy="420" r="2" fill="#5f78d8" fill-opacity="0.14"/><circle cx="330" cy="420" r="2" fill="#5f78d8" fill-opacity="0.14"/><circle cx="390" cy="420" r="2" fill="#5f78d8" fill-opacity="0.14"/><circle cx="450" cy="420" r="2" fill="#5f78d8" fill-opacity="0.14"/><circle cx="510" cy="420" r="2" fill="#5f78d8" fill-opacity="0.14"/><circle cx="570" cy="420" r="2" fill="#5f78d8" fill-opacity="0.14"/><circle cx="630" cy="420" r="2" fill="#5f78d8" fill-opacity="0.14"/><circle cx="690" cy="420" r="2" fill="#5f78d8" fill-opacity="0.14"/><circle cx="750" cy="420" r="2" fill="#5f78d8" fill-opacity="0.14"/><circle cx="810" cy="420" r="2" fill="#5f78d8" fill-opacity="0.14"/><circle cx="870" cy="420" r="2" fill="#5f78d8" fill-opacity="0.14"/><circle cx="930" cy="420" r="2" fill="#5f78d8" fill-opacity="0.14"/><circle cx="990" cy="420" r="2" fill="#5f78d8" fill-opacity="0.14"/><circle cx="1050" cy="420" r="2" fill="#5f78d8" fill-opacity="0.14"/><circle cx="1110" cy="420" r="2" fill="#5f78d8" fill-opacity="0.14"/><circle cx="1170" cy="420" r="2" fill="#5f78d8" fill-opacity="0.14"/><circle cx="1230" cy="420" r="2" fill="#5f78d8" fill-opacity="0.14"/><circle cx="90" cy="480" r="2" fill="#5f78d8" fill-opacity="0.14"/><circle cx="150" cy="480" r="2" fill="#5f78d8" fill-opacity="0.14"/><circle cx="210" cy="480" r="2" fill="#5f78d8" fill-opacity="0.14"/><circle cx="270" cy="480" r="2" fill="#5f78d8" fill-opacity="0.14"/><circle cx="330" cy="480" r="2" fill="#5f78d8" fill-opacity="0.14"/><circle cx="390" cy="480" r="2" fill="#5f78d8" fill-opacity="0.14"/><circle cx="450" cy="480" r="2" fill="#5f78d8" fill-opacity="0.14"/><circle cx="510" cy="480" r="2" fill="#5f78d8" fill-opacity="0.14"/><circle cx="570" cy="480" r="2" fill="#5f78d8" fill-opacity="0.14"/><circle cx="630" cy="480" r="2" fill="#5f78d8" fill-opacity="0.14"/><circle cx="690" cy="480" r="2" fill="#5f78d8" fill-opacity="0.14"/><circle cx="750" cy="480" r="2" fill="#5f78d8" fill-opacity="0.14"/><circle cx="810" cy="480" r="2" fill="#5f78d8" fill-opacity="0.14"/><circle cx="870" cy="480" r="2" fill="#5f78d8" fill-opacity="0.14"/><circle cx="930" cy="480" r="2" fill="#5f78d8" fill-opacity="0.14"/><circle cx="990" cy="480" r="2" fill="#5f78d8" fill-opacity="0.14"/><circle cx="1050" cy="480" r="2" fill="#5f78d8" fill-opacity="0.14"/><circle cx="1110" cy="480" r="2" fill="#5f78d8" fill-opacity="0.14"/><circle cx="1170" cy="480" r="2" fill="#5f78d8" fill-opacity="0.14"/><circle cx="1230" cy="480" r="2" fill="#5f78d8" fill-opacity="0.14"/><circle cx="90" cy="540" r="2" fill="#5f78d8" fill-opacity="0.14"/><circle cx="150" cy="540" r="2" fill="#5f78d8" fill-opacity="0.14"/><circle cx="210" cy="540" r="2" fill="#5f78d8" fill-opacity="0.14"/><circle cx="270" cy="540" r="2" fill="#5f78d8" fill-opacity="0.14"/><circle cx="330" cy="540" r="2" fill="#5f78d8" fill-opacity="0.14"/><circle cx="390" cy="540" r="2" fill="#5f78d8" fill-opacity="0.14"/><circle cx="450" cy="540" r="2" fill="#5f78d8" fill-opacity="0.14"/><circle cx="510" cy="540" r="2" fill="#5f78d8" fill-opacity="0.14"/><circle cx="570" cy="540" r="2" fill="#5f78d8" fill-opacity="0.14"/><circle cx="630" cy="540" r="2" fill="#5f78d8" fill-opacity="0.14"/><circle cx="690" cy="540" r="2" fill="#5f78d8" fill-opacity="0.14"/><circle cx="750" cy="540" r="2" fill="#5f78d8" fill-opacity="0.14"/><circle cx="810" cy="540" r="2" fill="#5f78d8" fill-opacity="0.14"/><circle cx="870" cy="540" r="2" fill="#5f78d8" fill-opacity="0.14"/><circle cx="930" cy="540" r="2" fill="#5f78d8" fill-opacity="0.14"/><circle cx="990" cy="540" r="2" fill="#5f78d8" fill-opacity="0.14"/><circle cx="1050" cy="540" r="2" fill="#5f78d8" fill-opacity="0.14"/><circle cx="1110" cy="540" r="2" fill="#5f78d8" fill-opacity="0.14"/><circle cx="1170" cy="540" r="2" fill="#5f78d8" fill-opacity="0.14"/><circle cx="1230" cy="540" r="2" fill="#5f78d8" fill-opacity="0.14"/><circle cx="90" cy="600" r="2" fill="#5f78d8" fill-opacity="0.14"/><circle cx="150" cy="600" r="2" fill="#5f78d8" fill-opacity="0.14"/><circle cx="210" cy="600" r="2" fill="#5f78d8" fill-opacity="0.14"/><circle cx="270" cy="600" r="2" fill="#5f78d8" fill-opacity="0.14"/><circle cx="330" cy="600" r="2" fill="#5f78d8" fill-opacity="0.14"/><circle cx="390" cy="600" r="2" fill="#5f78d8" fill-opacity="0.14"/><circle cx="450" cy="600" r="2" fill="#5f78d8" fill-opacity="0.14"/><circle cx="510" cy="600" r="2" fill="#5f78d8" fill-opacity="0.14"/><circle cx="570" cy="600" r="2" fill="#5f78d8" fill-opacity="0.14"/><circle cx="630" cy="600" r="2" fill="#5f78d8" fill-opacity="0.14"/><circle cx="690" cy="600" r="2" fill="#5f78d8" fill-opacity="0.14"/><circle cx="750" cy="600" r="2" fill="#5f78d8" fill-opacity="0.14"/><circle cx="810" cy="600" r="2" fill="#5f78d8" fill-opacity="0.14"/><circle cx="870" cy="600" r="2" fill="#5f78d8" fill-opacity="0.14"/><circle cx="930" cy="600" r="2" fill="#5f78d8" fill-opacity="0.14"/><circle cx="990" cy="600" r="2" fill="#5f78d8" fill-opacity="0.14"/><circle cx="1050" cy="600" r="2" fill="#5f78d8" fill-opacity="0.14"/><circle cx="1110" cy="600" r="2" fill="#5f78d8" fill-opacity="0.14"/><circle cx="1170" cy="600" r="2" fill="#5f78d8" fill-opacity="0.14"/><circle cx="1230" cy="600" r="2" fill="#5f78d8" fill-opacity="0.14"/>
<rect width="1280" height="720" fill="url(#glowA)"/>
<rect width="1280" height="720" fill="url(#glowB)"/>
<g transform="rotate(0 920 340)" fill="none" stroke="url(#ring)">
  <circle cx="920" cy="340" r="150" stroke-width="2" stroke-opacity="0.55"/>
  <circle cx="920" cy="340" r="104" stroke-width="2" stroke-opacity="0.40"/>
  <circle cx="920" cy="340" r="58" stroke-width="8" stroke-opacity="0.30"/>
</g>
<circle cx="920" cy="340" r="20" fill="#84a8ff" fill-opacity="0.9"/>
<rect x="90" y="96" width="52" height="5" rx="2.5" fill="#f0accb"/>
<text x="90" y="150" class="eb">AI 비교</text>
<text x="90" y="656" class="br">AI 도구 연구소 · blog.minminworld.com</text>
</svg>